<svg fill="#ffffff" xmlns="http://www.w3.org/2000/svg" data-name="Layer 1" viewBox="0 0 100 100" x="0px" y="0px"><title>PetIcons</title><g><path d="M70.8,53.87,68.17,53a77,77,0,0,0-12.69-3.25,10.25,10.25,0,0,1-4.12-1.65,6.88,6.88,0,0,1-3.28-6.17A7.17,7.17,0,0,1,53.35,35a19.06,19.06,0,0,0,8.57-5.1,11.73,11.73,0,0,1,3-2.28,4.71,4.71,0,0,1,5.32.74,9.7,9.7,0,0,1,2.07,3.14c.65,1.61,1.3,3.21,2,4.81A33.5,33.5,0,0,0,78,42.65a8.26,8.26,0,0,1,1.49,5.6,6,6,0,0,1-5.3,5.57,12.31,12.31,0,0,1-1.6.12C72.09,54,71.56,53.9,70.8,53.87Z"/></g><ellipse cx="62.94" cy="17.18" rx="8.02" ry="5.81" transform="translate(41.41 78.77) rotate(-86)"/><ellipse cx="50.46" cy="26.45" rx="5.34" ry="7.37" transform="translate(-0.79 1.57) rotate(-1.77)"/><ellipse cx="78.16" cy="20.84" rx="8.02" ry="5.81" transform="translate(25.14 81.92) rotate(-63.97)"/><ellipse cx="84.35" cy="35.1" rx="7.37" ry="5.34" transform="matrix(0.53, -0.85, 0.85, 0.53, 10.16, 88.41)"/><g data-name="nISRQw.tif"><path d="M46.84,77.59l-2.08,1a65.43,65.43,0,0,0-9.52,5.6,8.69,8.69,0,0,1-3.44,1.45A5.78,5.78,0,0,1,26.18,84a6,6,0,0,1-1-7.26,16,16,0,0,0,2.1-8.14,9.86,9.86,0,0,1,.44-3.14,4,4,0,0,1,3.62-2.72,8.37,8.37,0,0,1,3.11.65c1.34.57,2.68,1.15,4,1.7a28.31,28.31,0,0,0,6,1.55,7,7,0,0,1,4.22,2.46,5.06,5.06,0,0,1,.13,6.48,9.47,9.47,0,0,1-.88,1C47.66,76.88,47.31,77.16,46.84,77.59Z"/></g><ellipse cx="20.36" cy="60.32" rx="4.89" ry="6.75" transform="translate(-34.46 27.96) rotate(-40.79)"/><ellipse cx="18.4" cy="73.27" rx="4.5" ry="6.21" transform="translate(-47.46 36.26) rotate(-46.57)"/><ellipse cx="31.63" cy="53.47" rx="4.89" ry="6.75" transform="translate(-15.52 13.02) rotate(-18.77)"/><ellipse cx="43.8" cy="58.32" rx="4.5" ry="6.21" transform="translate(-12.07 11.43) rotate(-13.09)"/></svg>